<svg width="41" height="41" viewBox="0 0 41 41" fill="none" xmlns="http://www.w3.org/2000/svg">
<path fill-rule="evenodd" clip-rule="evenodd" d="M6.62625 2H34.3837C36.9388 2 39.01 4.07124 39.01 6.62625V34.3837C39.01 36.9388 36.9388 39.01 34.3837 39.01H6.62625C4.07124 39.01 2 36.9388 2 34.3837V6.62625C2 4.07124 4.07124 2 6.62625 2Z" stroke="#2A2E3B" stroke-width="3" stroke-linecap="round" stroke-linejoin="round"/>
<path d="M2 11.2525H39.01" stroke="#2A2E3B" stroke-width="3" stroke-linecap="round" stroke-linejoin="round"/>
<path d="M20.505 22.8181C21.7825 22.8181 22.8181 21.7825 22.8181 20.505C22.8181 19.2275 21.7825 18.1919 20.505 18.1919C19.2275 18.1919 18.1919 19.2275 18.1919 20.505C18.1919 21.7825 19.2275 22.8181 20.505 22.8181Z" fill="#2A2E3B"/>
<path d="M11.2526 22.8181C12.5301 22.8181 13.5657 21.7825 13.5657 20.505C13.5657 19.2275 12.5301 18.1919 11.2526 18.1919C9.97507 18.1919 8.93945 19.2275 8.93945 20.505C8.93945 21.7825 9.97507 22.8181 11.2526 22.8181Z" fill="#2A2E3B"/>
<path d="M29.7575 22.8181C31.035 22.8181 32.0706 21.7825 32.0706 20.505C32.0706 19.2275 31.035 18.1919 29.7575 18.1919C28.48 18.1919 27.4443 19.2275 27.4443 20.505C27.4443 21.7825 28.48 22.8181 29.7575 22.8181Z" fill="#2A2E3B"/>
<path d="M20.505 32.0706C21.7825 32.0706 22.8181 31.035 22.8181 29.7575C22.8181 28.48 21.7825 27.4443 20.505 27.4443C19.2275 27.4443 18.1919 28.48 18.1919 29.7575C18.1919 31.035 19.2275 32.0706 20.505 32.0706Z" fill="#2A2E3B"/>
<path d="M11.2526 32.0706C12.5301 32.0706 13.5657 31.035 13.5657 29.7575C13.5657 28.48 12.5301 27.4443 11.2526 27.4443C9.97507 27.4443 8.93945 28.48 8.93945 29.7575C8.93945 31.035 9.97507 32.0706 11.2526 32.0706Z" fill="#2A2E3B"/>
<path d="M29.7575 32.0706C31.035 32.0706 32.0706 31.035 32.0706 29.7575C32.0706 28.48 31.035 27.4443 29.7575 27.4443C28.48 27.4443 27.4443 28.48 27.4443 29.7575C27.4443 31.035 28.48 32.0706 29.7575 32.0706Z" fill="#2A2E3B"/>
</svg>
