<svg width="29" height="41" viewBox="0 0 29 41" fill="none" xmlns="http://www.w3.org/2000/svg">
<path d="M6.15886 18.6354L6.14666 14.4875C6.13151 6.1625 8.90815 2 14.4766 2C20.045 2 22.8176 6.1625 22.7944 14.4875V18.6354M6.15886 18.6354H22.8411C25.138 18.6354 27 20.4974 27 22.7943C27 22.7982 27 22.8021 27 22.806L26.9648 35.2826C26.9584 37.5749 25.0983 39.4297 22.806 39.4297H6.15886C3.86198 39.4297 2 37.5677 2 35.2709V22.7943C2 20.4974 3.86198 18.6354 6.15886 18.6354Z" stroke="#2A2E3B" stroke-width="3" stroke-linecap="round" stroke-linejoin="round"/>
<path d="M14.4766 32.1517C16.1992 32.1517 17.5957 30.7552 17.5957 29.0326C17.5957 27.3099 16.1992 25.9134 14.4766 25.9134C12.7539 25.9134 11.3574 27.3099 11.3574 29.0326C11.3574 30.7552 12.7539 32.1517 14.4766 32.1517Z" fill="#2A2E3B"/>
</svg>
