<svg width="36" height="46" viewBox="0 0 36 46" fill="none" xmlns="http://www.w3.org/2000/svg">
<path d="M33.76 28.5461C33.76 35.8108 30.4371 44.3467 17.88 44.3467C15.8743 44.3467 14.1043 44.1289 12.5457 43.7333M7.88488 41.6648C3.41441 38.5665 2 33.2857 2 28.5461V17.88C2 13.7347 3.73268 9.99416 6.5133 7.34301M10.9367 3.75949C13.0004 2.63743 15.3658 2 17.88 2C22.5191 2 27.1244 3.91289 29.79 7.29333M32.9815 10.5245C33.4862 12.0015 33.76 13.5854 33.76 15.2333C33.76 13.4689 33.76 16.1156 33.76 23.1733" stroke="#2A2E3B" stroke-width="3" stroke-linecap="round" stroke-linejoin="round"/>
<path d="M8.61679 36.4464C7.74622 34.6791 7.29346 32.7354 7.29346 30.7654V25.82V17.88C7.29346 12.0331 12.0333 7.29333 17.8801 7.29333C23.727 7.29333 28.4668 12.0331 28.4668 17.88V28.5461" stroke="#2A2E3B" stroke-width="3" stroke-linecap="round" stroke-linejoin="round"/>
<path d="M17.8798 39.0533C14.3509 37.2889 12.5864 34.6687 12.5864 31.1927V17.88C12.5864 14.9566 14.9563 12.5867 17.8798 12.5867C20.8032 12.5867 23.1731 14.9566 23.1731 17.88V28.5461C23.1731 30.3105 24.0553 31.1927 25.8198 31.1927C27.5842 31.1927 28.4664 30.3105 28.4664 28.5461" stroke="#2A2E3B" stroke-width="3" stroke-linecap="round" stroke-linejoin="round"/>
<path d="M17.8799 17.88V28.5461C17.8799 33.7865 20.5265 36.4067 25.8199 36.4067" stroke="#2A2E3B" stroke-width="3" stroke-linecap="round" stroke-linejoin="round"/>
</svg>
