<svg width="73" height="73" viewBox="0 0 73 73" fill="none" xmlns="http://www.w3.org/2000/svg">
<path d="M36.5 70C55.0015 70 70 55.0015 70 36.5C70 17.9985 55.0015 3 36.5 3C17.9985 3 3 17.9985 3 36.5C3 55.0015 17.9985 70 36.5 70Z" stroke="#2A2E3B" stroke-width="5" stroke-linecap="round" stroke-linejoin="round"/>
<path d="M61.625 57.4375C58.8549 47.9171 48.2269 44.7698 36.5 44.7698C25.0786 44.7698 14.4288 48.4079 11.375 57.4375M36.5 11.375C43.4381 11.375 49.0625 16.9994 49.0625 23.9375V28.125C49.0625 35.0631 43.4381 40.6875 36.5 40.6875C29.5619 40.6875 23.9375 35.0631 23.9375 28.125V23.9375C23.9375 16.9994 29.5619 11.375 36.5 11.375Z" stroke="#2A2E3B" stroke-width="5" stroke-linecap="round" stroke-linejoin="round"/>
</svg>
