<?xml version="1.0" encoding="UTF-8"?>
<!DOCTYPE svg PUBLIC "-//W3C//DTD SVG 1.1//EN" "http://www.w3.org/Graphics/SVG/1.1/DTD/svg11.dtd">
<!-- Creator: CorelDRAW 2021 (64 Bit) -->
<svg xmlns="http://www.w3.org/2000/svg" xml:space="preserve" width="93.6943mm" height="70.0238mm" version="1.1" shape-rendering="geometricPrecision" text-rendering="geometricPrecision" image-rendering="optimizeQuality" fill-rule="evenodd" clip-rule="evenodd"
viewBox="0 0 6774.59 5063.09"
 xmlns:xlink="http://www.w3.org/1999/xlink"
 xmlns:xodm="http://www.corel.com/coreldraw/odm/2003">
 <g id="Camada_x0020_1">
  <metadata id="CorelCorpID_0Corel-Layer"/>
  <polygon fill="#373435" fill-rule="nonzero" points="-0,5003.98 -0,3184.51 1130.74,3184.51 1130.74,3554.58 431.73,3554.58 431.73,3916.93 1056.21,3916.93 1056.21,4284.42 431.73,4284.42 431.73,5003.98 "/>
  <path id="_1" fill="#373435" fill-rule="nonzero" d="M1766.35 4425.76l478 0 -236 -569.66 -242 569.66zm-681.01 578.22l928.15 -1876 27.41 0 907.59 1876 -454.44 0 -115.21 -264.7 -738.41 0 -117.79 264.7 -437.31 0z"/>
  <path id="_2" fill="#373435" fill-rule="nonzero" d="M4428.73 3760.16c-78.81,-80.95 -158.47,-140.92 -239,-180.31 -80.95,-38.98 -165.75,-58.68 -254.41,-58.68 -153.76,0 -279.69,53.12 -377.35,159.33 -98.08,106.22 -146.91,242.85 -146.91,409.04 0,166.61 48.4,301.53 145.63,404.76 96.8,103.22 223.15,155.04 379.05,155.04 92.09,0 183.74,-19.27 275.4,-57.82 91.66,-38.55 182.89,-96.37 274.12,-173.47l-27.84 483.14c-77.95,52.68 -162.76,92.95 -255.27,120.36 -92.51,27.84 -188.46,41.55 -288.25,41.55 -107.08,0 -209.45,-16.71 -307.96,-50.11 -98.08,-33.41 -188.89,-83.09 -271.55,-148.2 -117.36,-92.09 -206.87,-204.31 -269.41,-337.08 -62.1,-132.35 -93.37,-277.12 -93.37,-433.45 0,-134.92 23.12,-261.28 68.96,-379.06 46.25,-117.79 113.07,-222.29 200.88,-312.66 88.65,-90.37 191.02,-159.33 307.52,-207.73 116.07,-47.97 238.57,-71.96 367.49,-71.96 102.37,0 199.59,14.14 292.54,42.83 92.94,28.27 181.6,71.52 265.98,129.35l-46.26 465.15z"/>
  <polygon id="_3" fill="#373435" fill-rule="nonzero" points="4772.67,5003.98 4772.67,3184.51 5206.98,3184.51 5206.98,5003.98 "/>
  <polygon id="_4" fill="#373435" fill-rule="nonzero" points="5631,5003.98 5631,3184.51 6065.31,3184.51 6065.31,4613.36 6774.59,4613.36 6774.59,5003.98 "/>
  <polygon fill="#F58634" points="1034.05,0 4459.69,823.38 4459.69,1919.17 1034.05,2858.35 "/>
  <polygon fill="#F16036" points="929.36,15.57 530.17,111.51 530.17,2768.73 929.36,2878.17 "/>
  <polygon fill="#373435" fill-rule="nonzero" points="2458.32,3759.95 2844.34,3105.38 3263.95,3105.38 2706.18,3759.95 "/>
 </g>
</svg>
