<svg width="42" height="45" viewBox="0 0 42 45" fill="none" xmlns="http://www.w3.org/2000/svg">
<path d="M21 2C25.4972 2 29.1429 5.64568 29.1429 10.1429V12.8571C29.1429 17.3543 25.4972 21 21 21C16.5028 21 12.8571 17.3543 12.8571 12.8571V10.1429C12.8571 5.64568 16.5028 2 21 2ZM40 40C40 39.3412 40 38.6824 40 38.0235C40 29.3747 29.9944 23.7143 21 23.7143C12.0056 23.7143 2 29.3747 2 38.0235V40C2 41.4991 3.21523 42.7143 4.71429 42.7143H37.2857C38.7848 42.7143 40 41.4991 40 40Z" stroke="#2A2E3B" stroke-width="3" stroke-linecap="round" stroke-linejoin="round"/>
</svg>
